<?xml version="1.0" encoding="UTF-8" standalone="no"?>
<!DOCTYPE svg PUBLIC "-//W3C//DTD SVG 1.1//EN"
 "http://www.w3.org/Graphics/SVG/1.1/DTD/svg11.dtd">
<!-- Generated by graphviz version 2.43.0 (0)
 -->
<!-- Title: build Pages: 1 -->
<svg width="454pt" height="476pt"
 viewBox="0.00 0.00 454.00 476.00" xmlns="http://www.w3.org/2000/svg" xmlns:xlink="http://www.w3.org/1999/xlink">
<g id="graph0" class="graph" transform="scale(1 1) rotate(0) translate(4 472)">
<title>build</title>
<g id="clust1" class="cluster">
<title>cluster_pod</title>
<path fill="#f7fafc" stroke="#9bb0c2" d="M20,-64C20,-64 426,-64 426,-64 432,-64 438,-70 438,-76 438,-76 438,-267 438,-267 438,-273 432,-279 426,-279 426,-279 20,-279 20,-279 14,-279 8,-273 8,-267 8,-267 8,-76 8,-76 8,-70 14,-64 20,-64"/>
<text text-anchor="middle" x="223" y="-267" font-family="DejaVu Sans" font-size="10.00">Pod (Job)</text>
</g>
<!-- a -->
<g id="node1" class="node">
<title>a</title>
<path fill="#fbf3da" stroke="#d4a017" stroke-width="1.3" d="M290,-468C290,-468 156,-468 156,-468 150,-468 144,-462 144,-456 144,-456 144,-444 144,-444 144,-438 150,-432 156,-432 156,-432 290,-432 290,-432 296,-432 302,-438 302,-444 302,-444 302,-456 302,-456 302,-462 296,-468 290,-468"/>
<text text-anchor="middle" x="223" y="-447.2" font-family="DejaVu Sans" font-size="11.00">POST run &#160;tvm+build:run</text>
</g>
<!-- b -->
<g id="node2" class="node">
<title>b</title>
<path fill="#eef3f8" stroke="#145a86" stroke-width="1.3" d="M368.5,-396C368.5,-396 77.5,-396 77.5,-396 71.5,-396 65.5,-390 65.5,-384 65.5,-384 65.5,-372 65.5,-372 65.5,-366 71.5,-360 77.5,-360 77.5,-360 368.5,-360 368.5,-360 374.5,-360 380.5,-366 380.5,-372 380.5,-372 380.5,-384 380.5,-384 380.5,-390 374.5,-396 368.5,-396"/>
<text text-anchor="middle" x="223" y="-375.2" font-family="DejaVu Sans" font-size="11.00">TvmRuntime.build() &#160;— merges function + task + run</text>
</g>
<!-- a&#45;&gt;b -->
<g id="edge1" class="edge">
<title>a&#45;&gt;b</title>
<path fill="none" stroke="#5b6b7a" stroke-width="1.1" d="M223,-431.7C223,-423.98 223,-414.71 223,-406.11"/>
<polygon fill="#5b6b7a" stroke="#5b6b7a" stroke-width="1.1" points="226.5,-406.1 223,-396.1 219.5,-406.1 226.5,-406.1"/>
</g>
<!-- c -->
<g id="node3" class="node">
<title>c</title>
<path fill="#eef3f8" stroke="#145a86" stroke-width="1.3" d="M335,-324C335,-324 111,-324 111,-324 105,-324 99,-318 99,-312 99,-312 99,-300 99,-300 99,-294 105,-288 111,-288 111,-288 335,-288 335,-288 341,-288 347,-294 347,-300 347,-300 347,-312 347,-312 347,-318 341,-324 335,-324"/>
<text text-anchor="middle" x="223" y="-309.2" font-family="DejaVu Sans" font-size="11.00">run() → TvmBuildRunner → OnnxFrontend</text>
<text text-anchor="middle" x="223" y="-297.2" font-family="DejaVu Sans" font-size="11.00">→ K8sJobRunnable (img tvm&#45;toolkit)</text>
</g>
<!-- b&#45;&gt;c -->
<g id="edge2" class="edge">
<title>b&#45;&gt;c</title>
<path fill="none" stroke="#5b6b7a" stroke-width="1.1" d="M223,-359.7C223,-351.98 223,-342.71 223,-334.11"/>
<polygon fill="#5b6b7a" stroke="#5b6b7a" stroke-width="1.1" points="226.5,-334.1 223,-324.1 219.5,-334.1 226.5,-334.1"/>
</g>
<!-- d -->
<g id="node4" class="node">
<title>d</title>
<path fill="#eef3f8" stroke="#145a86" stroke-width="1.3" d="M322,-252C322,-252 124,-252 124,-252 118,-252 112,-246 112,-240 112,-240 112,-228 112,-228 112,-222 118,-216 124,-216 124,-216 322,-216 322,-216 328,-216 334,-222 334,-228 334,-228 334,-240 334,-240 334,-246 328,-252 322,-252"/>
<text text-anchor="middle" x="223" y="-231.2" font-family="DejaVu Sans" font-size="11.00">init: download .onnx → /shared/input</text>
</g>
<!-- c&#45;&gt;d -->
<g id="edge3" class="edge">
<title>c&#45;&gt;d</title>
<path fill="none" stroke="#5b6b7a" stroke-width="1.1" d="M223,-287.7C223,-279.98 223,-270.71 223,-262.11"/>
<polygon fill="#5b6b7a" stroke="#5b6b7a" stroke-width="1.1" points="226.5,-262.1 223,-252.1 219.5,-262.1 226.5,-262.1"/>
</g>
<!-- e -->
<g id="node5" class="node">
<title>e</title>
<path fill="#eef3f8" stroke="#145a86" stroke-width="1.3" d="M417.5,-180C417.5,-180 28.5,-180 28.5,-180 22.5,-180 16.5,-174 16.5,-168 16.5,-168 16.5,-156 16.5,-156 16.5,-150 22.5,-144 28.5,-144 28.5,-144 417.5,-144 417.5,-144 423.5,-144 429.5,-150 429.5,-156 429.5,-156 429.5,-168 429.5,-168 429.5,-174 423.5,-180 417.5,-180"/>
<text text-anchor="middle" x="223" y="-159.2" font-family="DejaVu Sans" font-size="11.00">builder_onnx.py: &#160;ONNX → Relax IR (model.relax.json) + metadata.json</text>
</g>
<!-- d&#45;&gt;e -->
<g id="edge4" class="edge">
<title>d&#45;&gt;e</title>
<path fill="none" stroke="#5b6b7a" stroke-width="1.1" d="M223,-215.7C223,-207.98 223,-198.71 223,-190.11"/>
<polygon fill="#5b6b7a" stroke="#5b6b7a" stroke-width="1.1" points="226.5,-190.1 223,-180.1 219.5,-190.1 226.5,-190.1"/>
</g>
<!-- f -->
<g id="node6" class="node">
<title>f</title>
<path fill="#eef3f8" stroke="#145a86" stroke-width="1.3" d="M343,-108C343,-108 103,-108 103,-108 97,-108 91,-102 91,-96 91,-96 91,-84 91,-84 91,-78 97,-72 103,-72 103,-72 343,-72 343,-72 349,-72 355,-78 355,-84 355,-84 355,-96 355,-96 355,-102 349,-108 343,-108"/>
<text text-anchor="middle" x="223" y="-93.2" font-family="DejaVu Sans" font-size="11.00">_dh_publish.py: &#160;dh.log_model (Model on S3)</text>
<text text-anchor="middle" x="223" y="-81.2" font-family="DejaVu Sans" font-size="11.00">+ REST run.status.outputs.ir_module</text>
</g>
<!-- e&#45;&gt;f -->
<g id="edge5" class="edge">
<title>e&#45;&gt;f</title>
<path fill="none" stroke="#5b6b7a" stroke-width="1.1" d="M223,-143.7C223,-135.98 223,-126.71 223,-118.11"/>
<polygon fill="#5b6b7a" stroke="#5b6b7a" stroke-width="1.1" points="226.5,-118.1 223,-108.1 219.5,-118.1 226.5,-118.1"/>
</g>
<!-- g -->
<g id="node7" class="node">
<title>g</title>
<path fill="#fbf3da" stroke="#d4a017" stroke-width="1.3" d="M357.5,-36C357.5,-36 88.5,-36 88.5,-36 82.5,-36 76.5,-30 76.5,-24 76.5,-24 76.5,-12 76.5,-12 76.5,-6 82.5,0 88.5,0 88.5,0 357.5,0 357.5,0 363.5,0 369.5,-6 369.5,-12 369.5,-12 369.5,-24 369.5,-24 369.5,-30 363.5,-36 357.5,-36"/>
<text text-anchor="middle" x="223" y="-21.2" font-family="DejaVu Sans" font-size="11.00">onBuildComplete(): &#160;function.spec.ir_module</text>
<text text-anchor="middle" x="223" y="-9.2" font-family="DejaVu Sans" font-size="11.00">+ input/output shapes &amp; dtypes (auto&#45;populated)</text>
</g>
<!-- f&#45;&gt;g -->
<g id="edge6" class="edge">
<title>f&#45;&gt;g</title>
<path fill="none" stroke="#5b6b7a" stroke-width="1.1" d="M223,-71.7C223,-63.98 223,-54.71 223,-46.11"/>
<polygon fill="#5b6b7a" stroke="#5b6b7a" stroke-width="1.1" points="226.5,-46.1 223,-36.1 219.5,-46.1 226.5,-46.1"/>
</g>
</g>
</svg>
