<?xml version="1.0" encoding="UTF-8" standalone="no"?>
<!DOCTYPE svg PUBLIC "-//W3C//DTD SVG 1.1//EN"
 "http://www.w3.org/Graphics/SVG/1.1/DTD/svg11.dtd">
<!-- Generated by graphviz version 2.43.0 (0)
 -->
<!-- Title: serve Pages: 1 -->
<svg width="615pt" height="527pt"
 viewBox="0.00 0.00 615.00 527.00" xmlns="http://www.w3.org/2000/svg" xmlns:xlink="http://www.w3.org/1999/xlink">
<g id="graph0" class="graph" transform="scale(1 1) rotate(0) translate(4 523)">
<title>serve</title>
<g id="clust1" class="cluster">
<title>cluster_pod</title>
<path fill="#f3f8f3" stroke="#3a7d44" d="M25,-8C25,-8 379,-8 379,-8 385,-8 391,-14 391,-20 391,-20 391,-286 391,-286 391,-292 385,-298 379,-298 379,-298 25,-298 25,-298 19,-298 13,-292 13,-286 13,-286 13,-20 13,-20 13,-14 19,-8 25,-8"/>
<text text-anchor="middle" x="202" y="-286" font-family="DejaVu Sans" font-size="10.00">Pod &#160;(generic serve image · model downloaded at deploy time)</text>
</g>
<!-- a -->
<g id="node1" class="node">
<title>a</title>
<path fill="#fbf3da" stroke="#d4a017" stroke-width="1.3" d="M271,-519C271,-519 133,-519 133,-519 127,-519 121,-513 121,-507 121,-507 121,-495 121,-495 121,-489 127,-483 133,-483 133,-483 271,-483 271,-483 277,-483 283,-489 283,-495 283,-495 283,-507 283,-507 283,-513 277,-519 271,-519"/>
<text text-anchor="middle" x="202" y="-498.2" font-family="DejaVu Sans" font-size="11.00">POST run &#160;tvm+serve:run</text>
</g>
<!-- b -->
<g id="node2" class="node">
<title>b</title>
<path fill="#eef3f8" stroke="#145a86" stroke-width="1.3" d="M386.5,-446C386.5,-446 17.5,-446 17.5,-446 11.5,-446 5.5,-440 5.5,-434 5.5,-434 5.5,-410 5.5,-410 5.5,-404 11.5,-398 17.5,-398 17.5,-398 386.5,-398 386.5,-398 392.5,-398 398.5,-404 398.5,-410 398.5,-410 398.5,-434 398.5,-434 398.5,-440 392.5,-446 386.5,-446"/>
<text text-anchor="middle" x="202" y="-431.2" font-family="DejaVu Sans" font-size="11.00">TvmServeRunner.produce() → K8sServeRunnable</text>
<text text-anchor="middle" x="202" y="-419.2" font-family="DejaVu Sans" font-size="11.00">model = task.model_path | function.spec.so_model &#160;(tvm&#45;so Model)</text>
<text text-anchor="middle" x="202" y="-407.2" font-family="DejaVu Sans" font-size="11.00">image = task.image | runtime.tvm.serve &#160;(swappable base)</text>
</g>
<!-- a&#45;&gt;b -->
<g id="edge1" class="edge">
<title>a&#45;&gt;b</title>
<path fill="none" stroke="#5b6b7a" stroke-width="1.1" d="M202,-482.91C202,-475.06 202,-465.46 202,-456.27"/>
<polygon fill="#5b6b7a" stroke="#5b6b7a" stroke-width="1.1" points="205.5,-456.17 202,-446.17 198.5,-456.17 205.5,-456.17"/>
</g>
<!-- c -->
<g id="node3" class="node">
<title>c</title>
<path fill="#eef3f8" stroke="#145a86" stroke-width="1.3" d="M392,-361C392,-361 12,-361 12,-361 6,-361 0,-355 0,-349 0,-349 0,-337 0,-337 0,-331 6,-325 12,-325 12,-325 392,-325 392,-325 398,-325 404,-331 404,-337 404,-337 404,-349 404,-349 404,-355 398,-361 392,-361"/>
<text text-anchor="middle" x="202" y="-340.2" font-family="DejaVu Sans" font-size="11.00">K8s: Deployment + Service (ClusterIP / NodePort) · ports 8080 / 9000</text>
</g>
<!-- b&#45;&gt;c -->
<g id="edge2" class="edge">
<title>b&#45;&gt;c</title>
<path fill="none" stroke="#5b6b7a" stroke-width="1.1" d="M202,-397.9C202,-389.58 202,-380.12 202,-371.47"/>
<polygon fill="#5b6b7a" stroke="#5b6b7a" stroke-width="1.1" points="205.5,-371.45 202,-361.45 198.5,-371.45 205.5,-371.45"/>
</g>
<!-- init -->
<g id="node4" class="node">
<title>init</title>
<path fill="#e7f0e7" stroke="#3a7d44" stroke-width="1.3" d="M371.5,-271C371.5,-271 32.5,-271 32.5,-271 26.5,-271 20.5,-265 20.5,-259 20.5,-259 20.5,-247 20.5,-247 20.5,-241 26.5,-235 32.5,-235 32.5,-235 371.5,-235 371.5,-235 377.5,-235 383.5,-241 383.5,-247 383.5,-247 383.5,-259 383.5,-259 383.5,-265 377.5,-271 371.5,-271"/>
<text text-anchor="middle" x="202" y="-256.2" font-family="DejaVu Sans" font-size="11.00">init container: download s3://…/&lt;tvm&#45;so&gt;/ → &lt;home&gt;/model/</text>
<text text-anchor="middle" x="202" y="-244.2" font-family="DejaVu Sans" font-size="11.00">(model.so + metadata.json)</text>
</g>
<!-- c&#45;&gt;init -->
<g id="edge3" class="edge">
<title>c&#45;&gt;init</title>
<path fill="none" stroke="#5b6b7a" stroke-width="1.1" d="M202,-324.61C202,-312.24 202,-295.37 202,-281.22"/>
<polygon fill="#5b6b7a" stroke="#5b6b7a" stroke-width="1.1" points="205.5,-281.05 202,-271.05 198.5,-281.05 205.5,-281.05"/>
</g>
<!-- d -->
<g id="node5" class="node">
<title>d</title>
<path fill="#e7f0e7" stroke="#3a7d44" stroke-width="1.3" d="M359.5,-198C359.5,-198 44.5,-198 44.5,-198 38.5,-198 32.5,-192 32.5,-186 32.5,-186 32.5,-174 32.5,-174 32.5,-168 38.5,-162 44.5,-162 44.5,-162 359.5,-162 359.5,-162 365.5,-162 371.5,-168 371.5,-174 371.5,-174 371.5,-186 371.5,-186 371.5,-192 365.5,-198 359.5,-198"/>
<text text-anchor="middle" x="202" y="-177.2" font-family="DejaVu Sans" font-size="11.00">ENTRYPOINT: native tvm&#45;serve (Rust default; Go planned)</text>
</g>
<!-- init&#45;&gt;d -->
<g id="edge4" class="edge">
<title>init&#45;&gt;d</title>
<path fill="none" stroke="#5b6b7a" stroke-width="1.1" d="M202,-234.81C202,-226.79 202,-217.05 202,-208.07"/>
<polygon fill="#5b6b7a" stroke="#5b6b7a" stroke-width="1.1" points="205.5,-208.03 202,-198.03 198.5,-208.03 205.5,-208.03"/>
</g>
<!-- e -->
<g id="node6" class="node">
<title>e</title>
<path fill="#e7f0e7" stroke="#3a7d44" stroke-width="1.3" d="M371.5,-125C371.5,-125 32.5,-125 32.5,-125 26.5,-125 20.5,-119 20.5,-113 20.5,-113 20.5,-101 20.5,-101 20.5,-95 26.5,-89 32.5,-89 32.5,-89 371.5,-89 371.5,-89 377.5,-89 383.5,-95 383.5,-101 383.5,-101 383.5,-113 383.5,-113 383.5,-119 377.5,-125 371.5,-125"/>
<text text-anchor="middle" x="202" y="-110.2" font-family="DejaVu Sans" font-size="11.00">load &lt;home&gt;/model/model.so → Relax VM (dedicated thread)</text>
<text text-anchor="middle" x="202" y="-98.2" font-family="DejaVu Sans" font-size="11.00">TVM_MODEL_DIR + TVM_MODEL_NAME from env</text>
</g>
<!-- d&#45;&gt;e -->
<g id="edge5" class="edge">
<title>d&#45;&gt;e</title>
<path fill="none" stroke="#5b6b7a" stroke-width="1.1" d="M202,-161.81C202,-153.79 202,-144.05 202,-135.07"/>
<polygon fill="#5b6b7a" stroke="#5b6b7a" stroke-width="1.1" points="205.5,-135.03 202,-125.03 198.5,-135.03 205.5,-135.03"/>
</g>
<!-- f -->
<g id="node7" class="node">
<title>f</title>
<path fill="#e7f0e7" stroke="#3a7d44" stroke-width="1.3" d="M353.5,-52C353.5,-52 50.5,-52 50.5,-52 44.5,-52 38.5,-46 38.5,-40 38.5,-40 38.5,-28 38.5,-28 38.5,-22 44.5,-16 50.5,-16 50.5,-16 353.5,-16 353.5,-16 359.5,-16 365.5,-22 365.5,-28 365.5,-28 365.5,-40 365.5,-40 365.5,-46 359.5,-52 353.5,-52"/>
<text text-anchor="middle" x="202" y="-31.2" font-family="DejaVu Sans" font-size="11.00">KServe / Open Inference v2: &#160;REST :8080 &#160;· &#160;gRPC :9000</text>
</g>
<!-- e&#45;&gt;f -->
<g id="edge6" class="edge">
<title>e&#45;&gt;f</title>
<path fill="none" stroke="#5b6b7a" stroke-width="1.1" d="M202,-88.81C202,-80.79 202,-71.05 202,-62.07"/>
<polygon fill="#5b6b7a" stroke="#5b6b7a" stroke-width="1.1" points="205.5,-62.03 202,-52.03 198.5,-62.03 205.5,-62.03"/>
</g>
<!-- client -->
<g id="node8" class="node">
<title>client</title>
<path fill="#fbf3da" stroke="#d4a017" stroke-width="1.3" d="M343,-519C343,-519 313,-519 313,-519 307,-519 301,-513 301,-507 301,-507 301,-495 301,-495 301,-489 307,-483 313,-483 313,-483 343,-483 343,-483 349,-483 355,-489 355,-495 355,-495 355,-507 355,-507 355,-513 349,-519 343,-519"/>
<text text-anchor="middle" x="328" y="-498.2" font-family="DejaVu Sans" font-size="11.00">Client</text>
</g>
<!-- client&#45;&gt;f -->
<g id="edge7" class="edge">
<title>client&#45;&gt;f</title>
<path fill="none" stroke="#5b6b7a" stroke-width="1.1" stroke-dasharray="5,2" d="M355.24,-489.34C373.55,-480.62 396.39,-466.38 408,-446 450.67,-371.11 422.81,-126.23 392,-89 380.36,-74.93 345.53,-63.23 308.82,-54.35"/>
<polygon fill="#5b6b7a" stroke="#5b6b7a" stroke-width="1.1" points="309.48,-50.91 298.94,-52.04 307.88,-57.73 309.48,-50.91"/>
<text text-anchor="middle" x="518" y="-250.8" font-family="DejaVu Sans" font-size="9.00">POST /v2/models/&lt;served_name&gt;/infer</text>
</g>
</g>
</svg>
