<?xml version="1.0" encoding="UTF-8" standalone="no"?>
<!DOCTYPE svg PUBLIC "-//W3C//DTD SVG 1.1//EN"
 "http://www.w3.org/Graphics/SVG/1.1/DTD/svg11.dtd">
<!-- Generated by graphviz version 2.43.0 (0)
 -->
<!-- Title: chaining Pages: 1 -->
<svg width="1073pt" height="44pt"
 viewBox="0.00 0.00 1073.00 44.00" xmlns="http://www.w3.org/2000/svg" xmlns:xlink="http://www.w3.org/1999/xlink">
<g id="graph0" class="graph" transform="scale(1 1) rotate(0) translate(4 40)">
<title>chaining</title>
<!-- src -->
<g id="node1" class="node">
<title>src</title>
<path fill="white" stroke="#145a86" stroke-width="1.3" d="M43,-36C43,-36 12,-36 12,-36 6,-36 0,-30 0,-24 0,-24 0,-12 0,-12 0,-6 6,0 12,0 12,0 43,0 43,0 49,0 55,-6 55,-12 55,-12 55,-24 55,-24 55,-30 49,-36 43,-36"/>
<text text-anchor="middle" x="27.5" y="-21.2" font-family="DejaVu Sans" font-size="11.00">source</text>
<text text-anchor="middle" x="27.5" y="-9.2" font-family="DejaVu Sans" font-size="11.00">.onnx</text>
</g>
<!-- build -->
<g id="node2" class="node">
<title>build</title>
<path fill="#eef3f8" stroke="#145a86" stroke-width="1.3" d="M155,-36C155,-36 103,-36 103,-36 97,-36 91,-30 91,-24 91,-24 91,-12 91,-12 91,-6 97,0 103,0 103,0 155,0 155,0 161,0 167,-6 167,-12 167,-12 167,-24 167,-24 167,-30 161,-36 155,-36"/>
<text text-anchor="middle" x="129" y="-21.2" font-family="DejaVu Sans" font-size="11.00">tvm+build</text>
<text text-anchor="middle" x="129" y="-9.2" font-family="DejaVu Sans" font-size="11.00">(Job)</text>
</g>
<!-- src&#45;&gt;build -->
<g id="edge1" class="edge">
<title>src&#45;&gt;build</title>
<path fill="none" stroke="#5b6b7a" stroke-width="1.1" d="M55.16,-18C63.03,-18 71.87,-18 80.63,-18"/>
<polygon fill="#5b6b7a" stroke="#5b6b7a" stroke-width="1.1" points="80.79,-21.5 90.79,-18 80.79,-14.5 80.79,-21.5"/>
</g>
<!-- ir -->
<g id="node3" class="node">
<title>ir</title>
<path fill="#fbf3da" stroke="#d4a017" stroke-width="1.3" d="M342,-36C342,-36 215,-36 215,-36 209,-36 203,-30 203,-24 203,-24 203,-12 203,-12 203,-6 209,0 215,0 215,0 342,0 342,0 348,0 354,-6 354,-12 354,-12 354,-24 354,-24 354,-30 348,-36 342,-36"/>
<text text-anchor="middle" x="278.5" y="-21.2" font-family="DejaVu Sans" font-size="11.00">function.spec</text>
<text text-anchor="middle" x="278.5" y="-9.2" font-family="DejaVu Sans" font-size="11.00">ir_model &#160;(tvm&#45;ir Model)</text>
</g>
<!-- build&#45;&gt;ir -->
<g id="edge2" class="edge">
<title>build&#45;&gt;ir</title>
<path fill="none" stroke="#5b6b7a" stroke-width="1.1" d="M167.22,-18C175.16,-18 183.85,-18 192.76,-18"/>
<polygon fill="#5b6b7a" stroke="#5b6b7a" stroke-width="1.1" points="192.89,-21.5 202.89,-18 192.89,-14.5 192.89,-21.5"/>
</g>
<!-- compile -->
<g id="node4" class="node">
<title>compile</title>
<path fill="#eef3f8" stroke="#145a86" stroke-width="1.3" d="M564,-36C564,-36 402,-36 402,-36 396,-36 390,-30 390,-24 390,-24 390,-12 390,-12 390,-6 396,0 402,0 402,0 564,0 564,0 570,0 576,-6 576,-12 576,-12 576,-24 576,-24 576,-30 570,-36 564,-36"/>
<text text-anchor="middle" x="483" y="-21.2" font-family="DejaVu Sans" font-size="11.00">tvm+compile</text>
<text text-anchor="middle" x="483" y="-9.2" font-family="DejaVu Sans" font-size="11.00">(Job · compiler.py → model.so)</text>
</g>
<!-- ir&#45;&gt;compile -->
<g id="edge3" class="edge">
<title>ir&#45;&gt;compile</title>
<path fill="none" stroke="#5b6b7a" stroke-width="1.1" d="M354.04,-18C362.39,-18 371,-18 379.62,-18"/>
<polygon fill="#5b6b7a" stroke="#5b6b7a" stroke-width="1.1" points="379.73,-21.5 389.73,-18 379.73,-14.5 379.73,-21.5"/>
</g>
<!-- so -->
<g id="node5" class="node">
<title>so</title>
<path fill="#fbf3da" stroke="#d4a017" stroke-width="1.3" d="M762,-36C762,-36 624,-36 624,-36 618,-36 612,-30 612,-24 612,-24 612,-12 612,-12 612,-6 618,0 624,0 624,0 762,0 762,0 768,0 774,-6 774,-12 774,-12 774,-24 774,-24 774,-30 768,-36 762,-36"/>
<text text-anchor="middle" x="693" y="-21.2" font-family="DejaVu Sans" font-size="11.00">function.spec</text>
<text text-anchor="middle" x="693" y="-9.2" font-family="DejaVu Sans" font-size="11.00">so_model &#160;(tvm&#45;so Model)</text>
</g>
<!-- compile&#45;&gt;so -->
<g id="edge4" class="edge">
<title>compile&#45;&gt;so</title>
<path fill="none" stroke="#5b6b7a" stroke-width="1.1" d="M576.14,-18C584.64,-18 593.24,-18 601.72,-18"/>
<polygon fill="#5b6b7a" stroke="#5b6b7a" stroke-width="1.1" points="601.99,-21.5 611.99,-18 601.99,-14.5 601.99,-21.5"/>
</g>
<!-- serve -->
<g id="node6" class="node">
<title>serve</title>
<path fill="#e7f0e7" stroke="#3a7d44" stroke-width="1.3" d="M901,-36C901,-36 822,-36 822,-36 816,-36 810,-30 810,-24 810,-24 810,-12 810,-12 810,-6 816,0 822,0 822,0 901,0 901,0 907,0 913,-6 913,-12 913,-12 913,-24 913,-24 913,-30 907,-36 901,-36"/>
<text text-anchor="middle" x="861.5" y="-21.2" font-family="DejaVu Sans" font-size="11.00">tvm+serve</text>
<text text-anchor="middle" x="861.5" y="-9.2" font-family="DejaVu Sans" font-size="11.00">(model&#45;centric)</text>
</g>
<!-- so&#45;&gt;serve -->
<g id="edge5" class="edge">
<title>so&#45;&gt;serve</title>
<path fill="none" stroke="#5b6b7a" stroke-width="1.1" d="M774.32,-18C782.86,-18 791.44,-18 799.7,-18"/>
<polygon fill="#5b6b7a" stroke="#5b6b7a" stroke-width="1.1" points="799.96,-21.5 809.96,-18 799.96,-14.5 799.96,-21.5"/>
</g>
<!-- ep -->
<g id="node7" class="node">
<title>ep</title>
<path fill="#e7f0e7" stroke="#3a7d44" stroke-width="1.3" d="M1053,-36C1053,-36 961,-36 961,-36 955,-36 949,-30 949,-24 949,-24 949,-12 949,-12 949,-6 955,0 961,0 961,0 1053,0 1053,0 1059,0 1065,-6 1065,-12 1065,-12 1065,-24 1065,-24 1065,-30 1059,-36 1053,-36"/>
<text text-anchor="middle" x="1007" y="-21.2" font-family="DejaVu Sans" font-size="11.00">endpoint</text>
<text text-anchor="middle" x="1007" y="-9.2" font-family="DejaVu Sans" font-size="11.00">OpenInference v2</text>
</g>
<!-- serve&#45;&gt;ep -->
<g id="edge6" class="edge">
<title>serve&#45;&gt;ep</title>
<path fill="none" stroke="#5b6b7a" stroke-width="1.1" d="M913.09,-18C921.24,-18 929.78,-18 938.26,-18"/>
<polygon fill="#5b6b7a" stroke="#5b6b7a" stroke-width="1.1" points="938.52,-21.5 948.52,-18 938.52,-14.5 938.52,-21.5"/>
</g>
</g>
</svg>
