<?xml version="1.0" encoding="UTF-8" standalone="no"?>
<!DOCTYPE svg PUBLIC "-//W3C//DTD SVG 1.1//EN"
 "http://www.w3.org/Graphics/SVG/1.1/DTD/svg11.dtd">
<!-- Generated by graphviz version 2.43.0 (0)
 -->
<!-- Title: overview Pages: 1 -->
<svg width="397pt" height="416pt"
 viewBox="0.00 0.00 397.00 416.00" xmlns="http://www.w3.org/2000/svg" xmlns:xlink="http://www.w3.org/1999/xlink">
<g id="graph0" class="graph" transform="scale(1 1) rotate(0) translate(4 412)">
<title>overview</title>
<g id="clust1" class="cluster">
<title>cluster_k8s</title>
<path fill="#f7fafc" stroke="#9bb0c2" d="M20,-8C20,-8 324,-8 324,-8 330,-8 336,-14 336,-20 336,-20 336,-232 336,-232 336,-238 330,-244 324,-244 324,-244 20,-244 20,-244 14,-244 8,-238 8,-232 8,-232 8,-20 8,-20 8,-14 14,-8 20,-8"/>
<text text-anchor="middle" x="172" y="-231.2" font-family="DejaVu Sans" font-size="11.00">Kubernetes (minikube)</text>
</g>
<!-- client -->
<g id="node1" class="node">
<title>client</title>
<path fill="#fbf3da" stroke="#d4a017" stroke-width="1.3" d="M250.5,-408C250.5,-408 147.5,-408 147.5,-408 141.5,-408 135.5,-402 135.5,-396 135.5,-396 135.5,-384 135.5,-384 135.5,-378 141.5,-372 147.5,-372 147.5,-372 250.5,-372 250.5,-372 256.5,-372 262.5,-378 262.5,-384 262.5,-384 262.5,-396 262.5,-396 262.5,-402 256.5,-408 250.5,-408"/>
<text text-anchor="middle" x="199" y="-387.2" font-family="DejaVu Sans" font-size="11.00">Console / SDK / curl</text>
</g>
<!-- core -->
<g id="node2" class="node">
<title>core</title>
<path fill="#dde9f3" stroke="#145a86" stroke-width="1.3" d="M322,-326C322,-326 76,-326 76,-326 70,-326 64,-320 64,-314 64,-314 64,-292 64,-292 64,-286 70,-280 76,-280 76,-280 322,-280 322,-280 328,-280 334,-286 334,-292 334,-292 334,-314 334,-314 334,-320 328,-326 322,-326"/>
<text text-anchor="middle" x="199" y="-312.2" font-family="DejaVu Sans" font-size="11.00">digitalhub&#45;core (Spring Boot)</text>
<text text-anchor="middle" x="199" y="-300.2" font-family="DejaVu Sans" font-size="11.00">@RuntimeComponent(&quot;tvm&quot;)</text>
<text text-anchor="middle" x="199" y="-288.2" font-family="DejaVu Sans" font-size="11.00">build · onBuilt · run · onComplete · onRunning</text>
</g>
<!-- client&#45;&gt;core -->
<g id="edge1" class="edge">
<title>client&#45;&gt;core</title>
<path fill="none" stroke="#5b6b7a" stroke-width="1.1" d="M199,-371.8C199,-361.59 199,-348.33 199,-336.24"/>
<polygon fill="#5b6b7a" stroke="#5b6b7a" stroke-width="1.1" points="202.5,-336.03 199,-326.03 195.5,-336.03 202.5,-336.03"/>
<text text-anchor="middle" x="228" y="-346.8" font-family="DejaVu Sans" font-size="9.00">REST /api/v1</text>
</g>
<!-- serve -->
<g id="node4" class="node">
<title>serve</title>
<path fill="#e7f0e7" stroke="#3a7d44" stroke-width="1.3" d="M316,-52C316,-52 28,-52 28,-52 22,-52 16,-46 16,-40 16,-40 16,-28 16,-28 16,-22 22,-16 28,-16 28,-16 316,-16 316,-16 322,-16 328,-22 328,-28 328,-28 328,-40 328,-40 328,-46 322,-52 316,-52"/>
<text text-anchor="middle" x="172" y="-37.2" font-family="DejaVu Sans" font-size="11.00">Deployment + Service &#160;tvm+serve</text>
<text text-anchor="middle" x="172" y="-25.2" font-family="DejaVu Sans" font-size="11.00">(model&#45;centric · native tvm&#45;serve · Rust · KServe v2)</text>
</g>
<!-- client&#45;&gt;serve -->
<g id="edge6" class="edge">
<title>client&#45;&gt;serve</title>
<path fill="none" stroke="#5b6b7a" stroke-width="1.1" stroke-dasharray="5,2" d="M262.57,-377.75C292.32,-368.96 325.08,-353.4 343,-326 354.19,-308.89 345.05,-300.34 343,-280 333.12,-181.68 345.79,-133.41 270,-70 263.76,-64.78 256.69,-60.32 249.27,-56.5"/>
<polygon fill="#5b6b7a" stroke="#5b6b7a" stroke-width="1.1" points="250.26,-53.1 239.72,-52.01 247.28,-59.44 250.26,-53.1"/>
<text text-anchor="middle" x="364" y="-195.8" font-family="DejaVu Sans" font-size="9.00">/v2/.../infer</text>
</g>
<!-- job -->
<g id="node3" class="node">
<title>job</title>
<path fill="#eef3f8" stroke="#145a86" stroke-width="1.3" d="M222,-216C222,-216 40,-216 40,-216 34,-216 28,-210 28,-204 28,-204 28,-192 28,-192 28,-186 34,-180 40,-180 40,-180 222,-180 222,-180 228,-180 234,-186 234,-192 234,-192 234,-204 234,-204 234,-210 228,-216 222,-216"/>
<text text-anchor="middle" x="131" y="-201.2" font-family="DejaVu Sans" font-size="11.00">Job &#160;tvm+build / tvm+compile</text>
<text text-anchor="middle" x="131" y="-189.2" font-family="DejaVu Sans" font-size="11.00">(tvm&#45;toolkit · plain Job, no Kaniko)</text>
</g>
<!-- core&#45;&gt;job -->
<g id="edge2" class="edge">
<title>core&#45;&gt;job</title>
<path fill="none" stroke="#5b6b7a" stroke-width="1.1" d="M184.41,-279.9C173.71,-263.7 159.15,-241.64 147.94,-224.66"/>
<polygon fill="#5b6b7a" stroke="#5b6b7a" stroke-width="1.1" points="150.85,-222.71 142.42,-216.29 145,-226.57 150.85,-222.71"/>
<text text-anchor="middle" x="198" y="-254.8" font-family="DejaVu Sans" font-size="9.00">kubeconfig</text>
</g>
<!-- core&#45;&gt;serve -->
<g id="edge3" class="edge">
<title>core&#45;&gt;serve</title>
<path fill="none" stroke="#5b6b7a" stroke-width="1.1" d="M220.63,-279.9C229.16,-269.79 238.08,-257.14 243,-244 256.58,-207.71 275.35,-102.33 254,-70 251.04,-65.51 247.37,-61.6 243.24,-58.19"/>
<polygon fill="#5b6b7a" stroke="#5b6b7a" stroke-width="1.1" points="244.99,-55.14 234.8,-52.22 240.95,-60.85 244.99,-55.14"/>
<text text-anchor="middle" x="287" y="-154.8" font-family="DejaVu Sans" font-size="9.00">kubeconfig</text>
</g>
<!-- minio -->
<g id="node5" class="node">
<title>minio</title>
<path fill="#f3e7ef" stroke="#8e4585" stroke-width="1.3" d="M127.5,-134C127.5,-134 38.5,-134 38.5,-134 32.5,-134 26.5,-128 26.5,-122 26.5,-122 26.5,-110 26.5,-110 26.5,-104 32.5,-98 38.5,-98 38.5,-98 127.5,-98 127.5,-98 133.5,-98 139.5,-104 139.5,-110 139.5,-110 139.5,-122 139.5,-122 139.5,-128 133.5,-134 127.5,-134"/>
<text text-anchor="middle" x="83" y="-119.2" font-family="DejaVu Sans" font-size="11.00">MinIO (S3)</text>
<text text-anchor="middle" x="83" y="-107.2" font-family="DejaVu Sans" font-size="11.00">bucket digitalhub</text>
</g>
<!-- job&#45;&gt;minio -->
<g id="edge4" class="edge">
<title>job&#45;&gt;minio</title>
<path fill="none" stroke="#5b6b7a" stroke-width="1.1" d="M108.78,-179.89C103.25,-174.68 97.82,-168.57 94,-162 90.84,-156.57 88.59,-150.25 86.98,-144.11"/>
<polygon fill="#5b6b7a" stroke="#5b6b7a" stroke-width="1.1" points="90.35,-143.15 84.83,-134.11 83.51,-144.62 90.35,-143.15"/>
<text text-anchor="middle" x="170" y="-154.8" font-family="DejaVu Sans" font-size="9.00">build/compile: Model on S3 (SDK)</text>
</g>
<!-- minio&#45;&gt;serve -->
<g id="edge5" class="edge">
<title>minio&#45;&gt;serve</title>
<path fill="none" stroke="#5b6b7a" stroke-width="1.1" stroke-dasharray="5,2" d="M69.58,-97.66C64.44,-88.81 61.09,-78.21 67,-70 70.3,-65.42 74.23,-61.43 78.59,-57.96"/>
<polygon fill="#5b6b7a" stroke="#5b6b7a" stroke-width="1.1" points="80.63,-60.8 86.88,-52.24 76.66,-55.04 80.63,-60.8"/>
<text text-anchor="middle" x="160.5" y="-72.8" font-family="DejaVu Sans" font-size="9.00">init container: download tvm&#45;so model.so</text>
</g>
</g>
</svg>
