<?xml version="1.0" encoding="UTF-8" standalone="no"?>
<!DOCTYPE svg PUBLIC "-//W3C//DTD SVG 1.1//EN"
 "http://www.w3.org/Graphics/SVG/1.1/DTD/svg11.dtd">
<!-- Generated by graphviz version 2.43.0 (0)
 -->
<!-- Title: compile Pages: 1 -->
<svg width="421pt" height="416pt"
 viewBox="0.00 0.00 421.00 416.00" xmlns="http://www.w3.org/2000/svg" xmlns:xlink="http://www.w3.org/1999/xlink">
<g id="graph0" class="graph" transform="scale(1 1) rotate(0) translate(4 412)">
<title>compile</title>
<g id="clust1" class="cluster">
<title>cluster_pod</title>
<path fill="#f7fafc" stroke="#9bb0c2" d="M31.5,-64C31.5,-64 381.5,-64 381.5,-64 387.5,-64 393.5,-70 393.5,-76 393.5,-76 393.5,-267 393.5,-267 393.5,-273 387.5,-279 381.5,-279 381.5,-279 31.5,-279 31.5,-279 25.5,-279 19.5,-273 19.5,-267 19.5,-267 19.5,-76 19.5,-76 19.5,-70 25.5,-64 31.5,-64"/>
<text text-anchor="middle" x="206.5" y="-267" font-family="DejaVu Sans" font-size="10.00">Pod (single Job · no Kaniko, no image build)</text>
</g>
<!-- a -->
<g id="node1" class="node">
<title>a</title>
<path fill="#fbf3da" stroke="#d4a017" stroke-width="1.3" d="M281.5,-408C281.5,-408 131.5,-408 131.5,-408 125.5,-408 119.5,-402 119.5,-396 119.5,-396 119.5,-384 119.5,-384 119.5,-378 125.5,-372 131.5,-372 131.5,-372 281.5,-372 281.5,-372 287.5,-372 293.5,-378 293.5,-384 293.5,-384 293.5,-396 293.5,-396 293.5,-402 287.5,-408 281.5,-408"/>
<text text-anchor="middle" x="206.5" y="-387.2" font-family="DejaVu Sans" font-size="11.00">POST run &#160;tvm+compile:run</text>
</g>
<!-- b -->
<g id="node2" class="node">
<title>b</title>
<path fill="#eef3f8" stroke="#145a86" stroke-width="1.3" d="M380.5,-336C380.5,-336 32.5,-336 32.5,-336 26.5,-336 20.5,-330 20.5,-324 20.5,-324 20.5,-300 20.5,-300 20.5,-294 26.5,-288 32.5,-288 32.5,-288 380.5,-288 380.5,-288 386.5,-288 392.5,-294 392.5,-300 392.5,-300 392.5,-324 392.5,-324 392.5,-330 386.5,-336 380.5,-336"/>
<text text-anchor="middle" x="206.5" y="-321.2" font-family="DejaVu Sans" font-size="11.00">run() → TvmCompileRunner → K8sJobRunnable (img tvm&#45;toolkit)</text>
<text text-anchor="middle" x="206.5" y="-309.2" font-family="DejaVu Sans" font-size="11.00">IR from model_path &#160;or &#160;function.spec.ir_model</text>
<text text-anchor="middle" x="206.5" y="-297.2" font-family="DejaVu Sans" font-size="11.00">TVM_TARGET = target_architecture</text>
</g>
<!-- a&#45;&gt;b -->
<g id="edge1" class="edge">
<title>a&#45;&gt;b</title>
<path fill="none" stroke="#5b6b7a" stroke-width="1.1" d="M206.5,-371.75C206.5,-364.2 206.5,-355.07 206.5,-346.28"/>
<polygon fill="#5b6b7a" stroke="#5b6b7a" stroke-width="1.1" points="210,-346.23 206.5,-336.23 203,-346.23 210,-346.23"/>
</g>
<!-- c -->
<g id="node3" class="node">
<title>c</title>
<path fill="#eef3f8" stroke="#145a86" stroke-width="1.3" d="M304,-252C304,-252 109,-252 109,-252 103,-252 97,-246 97,-240 97,-240 97,-228 97,-228 97,-222 103,-216 109,-216 109,-216 304,-216 304,-216 310,-216 316,-222 316,-228 316,-228 316,-240 316,-240 316,-246 310,-252 304,-252"/>
<text text-anchor="middle" x="206.5" y="-231.2" font-family="DejaVu Sans" font-size="11.00">init: download IR dir → /shared/input</text>
</g>
<!-- b&#45;&gt;c -->
<g id="edge2" class="edge">
<title>b&#45;&gt;c</title>
<path fill="none" stroke="#5b6b7a" stroke-width="1.1" d="M206.5,-287.78C206.5,-279.68 206.5,-270.52 206.5,-262.12"/>
<polygon fill="#5b6b7a" stroke="#5b6b7a" stroke-width="1.1" points="210,-262.04 206.5,-252.04 203,-262.04 210,-262.04"/>
</g>
<!-- d -->
<g id="node4" class="node">
<title>d</title>
<path fill="#eef3f8" stroke="#145a86" stroke-width="1.3" d="M373,-180C373,-180 40,-180 40,-180 34,-180 28,-174 28,-168 28,-168 28,-156 28,-156 28,-150 34,-144 40,-144 40,-144 373,-144 373,-144 379,-144 385,-150 385,-156 385,-156 385,-168 385,-168 385,-174 379,-180 373,-180"/>
<text text-anchor="middle" x="206.5" y="-165.2" font-family="DejaVu Sans" font-size="11.00">compiler.py: &#160;load_json → [bind params] → relax.build(target)</text>
<text text-anchor="middle" x="206.5" y="-153.2" font-family="DejaVu Sans" font-size="11.00">→ export_library(model.so) + metadata.json</text>
</g>
<!-- c&#45;&gt;d -->
<g id="edge3" class="edge">
<title>c&#45;&gt;d</title>
<path fill="none" stroke="#5b6b7a" stroke-width="1.1" d="M206.5,-215.7C206.5,-207.98 206.5,-198.71 206.5,-190.11"/>
<polygon fill="#5b6b7a" stroke="#5b6b7a" stroke-width="1.1" points="210,-190.1 206.5,-180.1 203,-190.1 210,-190.1"/>
</g>
<!-- e -->
<g id="node5" class="node">
<title>e</title>
<path fill="#eef3f8" stroke="#145a86" stroke-width="1.3" d="M350.5,-108C350.5,-108 62.5,-108 62.5,-108 56.5,-108 50.5,-102 50.5,-96 50.5,-96 50.5,-84 50.5,-84 50.5,-78 56.5,-72 62.5,-72 62.5,-72 350.5,-72 350.5,-72 356.5,-72 362.5,-78 362.5,-84 362.5,-84 362.5,-96 362.5,-96 362.5,-102 356.5,-108 350.5,-108"/>
<text text-anchor="middle" x="206.5" y="-93.2" font-family="DejaVu Sans" font-size="11.00">_dh_publish.py: &#160;dh.log_tvm_so (tvm&#45;so Model on S3)</text>
<text text-anchor="middle" x="206.5" y="-81.2" font-family="DejaVu Sans" font-size="11.00">+ REST run.status.outputs.compiled_so</text>
</g>
<!-- d&#45;&gt;e -->
<g id="edge4" class="edge">
<title>d&#45;&gt;e</title>
<path fill="none" stroke="#5b6b7a" stroke-width="1.1" d="M206.5,-143.7C206.5,-135.98 206.5,-126.71 206.5,-118.11"/>
<polygon fill="#5b6b7a" stroke="#5b6b7a" stroke-width="1.1" points="210,-118.1 206.5,-108.1 203,-118.1 210,-118.1"/>
</g>
<!-- g -->
<g id="node6" class="node">
<title>g</title>
<path fill="#fbf3da" stroke="#d4a017" stroke-width="1.3" d="M401,-36C401,-36 12,-36 12,-36 6,-36 0,-30 0,-24 0,-24 0,-12 0,-12 0,-6 6,0 12,0 12,0 401,0 401,0 407,0 413,-6 413,-12 413,-12 413,-24 413,-24 413,-30 407,-36 401,-36"/>
<text text-anchor="middle" x="206.5" y="-15.2" font-family="DejaVu Sans" font-size="11.00">onCompileComplete(): &#160;function.spec.so_model = &lt;tvm&#45;so Model key&gt;</text>
</g>
<!-- e&#45;&gt;g -->
<g id="edge5" class="edge">
<title>e&#45;&gt;g</title>
<path fill="none" stroke="#5b6b7a" stroke-width="1.1" d="M206.5,-71.7C206.5,-63.98 206.5,-54.71 206.5,-46.11"/>
<polygon fill="#5b6b7a" stroke="#5b6b7a" stroke-width="1.1" points="210,-46.1 206.5,-36.1 203,-46.1 210,-46.1"/>
</g>
</g>
</svg>
